<svg width="32" height="32" viewBox="0 0 32 32" fill="none" xmlns="http://www.w3.org/2000/svg">
<path d="M16.0001 9.90407C14.4025 9.93301 12.88 10.588 11.7604 11.7281C10.6408 12.8681 10.0135 14.4022 10.0135 16.0001C10.0135 17.598 10.6408 19.132 11.7604 20.2721C12.88 21.4122 14.4025 22.0671 16.0001 22.0961C17.5977 22.0671 19.1202 21.4122 20.2398 20.2721C21.3594 19.132 21.9867 17.598 21.9867 16.0001C21.9867 14.4022 21.3594 12.8681 20.2398 11.7281C19.1202 10.588 17.5977 9.93301 16.0001 9.90407ZM16.0001 20.4801C14.8119 20.4801 13.6724 20.0081 12.8323 19.1679C11.9921 18.3277 11.5201 17.1882 11.5201 16.0001C11.5201 14.8119 11.9921 13.6724 12.8323 12.8322C13.6724 11.9921 14.8119 11.5201 16.0001 11.5201C17.1883 11.5201 18.3278 11.9921 19.1679 12.8322C20.0081 13.6724 20.4801 14.8119 20.4801 16.0001C20.4801 17.1882 20.0081 18.3277 19.1679 19.1679C18.3278 20.0081 17.1883 20.4801 16.0001 20.4801ZM24.5761 2.32007H7.42309C6.74586 2.3202 6.07529 2.45372 5.44967 2.713C4.82404 2.97229 4.25561 3.35226 3.77683 3.83123C3.29805 4.31019 2.9183 4.87877 2.65926 5.50449C2.40022 6.13022 2.26696 6.80084 2.26709 7.47807V24.5201C2.26709 27.3701 4.57709 29.6761 7.42309 29.6761H24.5761C27.4261 29.6761 29.7321 27.3661 29.7321 24.5211V7.48007C29.7321 4.63007 27.4251 2.32007 24.5761 2.32007ZM22.2361 5.39407C22.2361 4.78907 22.7261 4.29707 23.3331 4.29707H26.5531C27.1571 4.29707 27.6491 4.78707 27.6491 5.39407V8.61407C27.6491 9.21807 27.1591 9.71007 26.5511 9.71007H23.3311C22.7281 9.71007 22.2351 9.22007 22.2351 8.61307V5.39307L22.2361 5.39407ZM28.6361 24.5211C28.6361 26.7591 26.8161 28.5811 24.5761 28.5811H7.42309C6.34664 28.58 5.31457 28.1519 4.55341 27.3908C3.79224 26.6296 3.36415 25.5975 3.36309 24.5211V10.8801H4.19009C4.29209 10.3801 4.73409 10.0021 5.26509 10.0021H8.70309C9.23309 10.0021 9.67709 10.3791 9.77709 10.8791H11.2751C12.5171 9.73207 14.1751 9.03007 16.0001 9.03007C17.8251 9.03007 19.4801 9.73007 20.7231 10.8771H28.6351V24.5201H28.6371L28.6361 24.5211Z" fill="#FF7353"/>
</svg>
