<svg width="40" height="40" viewBox="0 0 40 40" fill="none" xmlns="http://www.w3.org/2000/svg">
<path d="M20.2266 3.74998C11.0875 3.62655 3.62661 11.0875 3.75005 20.2265C3.87192 28.9914 11.0086 36.1281 19.7735 36.25C28.9141 36.375 36.3735 28.914 36.2485 19.775C36.1282 11.0086 28.9914 3.87186 20.2266 3.74998ZM30.1032 29.3164C30.072 29.35 30.0339 29.3764 29.9914 29.3937C29.949 29.411 29.9032 29.4187 29.8575 29.4163C29.8117 29.4139 29.767 29.4015 29.7266 29.3799C29.6861 29.3583 29.6509 29.3281 29.6235 29.2914C28.9247 28.3771 28.0689 27.5944 27.0961 26.9797C25.1071 25.7031 22.5868 25 20 25C17.4133 25 14.893 25.7031 12.9039 26.9797C11.9312 27.5941 11.0754 28.3766 10.3766 29.2906C10.3492 29.3273 10.314 29.3575 10.2735 29.3791C10.2331 29.4007 10.1884 29.4131 10.1426 29.4155C10.0968 29.4179 10.0511 29.4102 10.0086 29.3929C9.96618 29.3757 9.92804 29.3493 9.89692 29.3156C7.60448 26.8409 6.3059 23.6072 6.25004 20.2344C6.1227 12.632 12.361 6.26873 19.9665 6.24998C27.5719 6.23123 33.75 12.407 33.75 20C33.7527 23.4542 32.4501 26.7819 30.1032 29.3164Z" fill="black"/>
<path d="M20 11.25C18.4594 11.25 17.0664 11.8273 16.0765 12.8766C15.0867 13.9258 14.5922 15.3766 14.7039 16.9336C14.9304 20 17.3062 22.5 20 22.5C22.6937 22.5 25.0648 20 25.2961 16.9344C25.4117 15.3922 24.9211 13.9547 23.9148 12.8859C22.9211 11.8313 21.5304 11.25 20 11.25Z" fill="black"/>
</svg>
