<svg width="14" height="16" viewBox="0 0 14 16" fill="none" xmlns="http://www.w3.org/2000/svg">
<path fill-rule="evenodd" clip-rule="evenodd" d="M2.38896 3.95466C1.59824 4.18306 1.02818 4.87254 0.952453 5.69209L0.100902 14.908C0.0467439 15.4941 0.50804 16 1.09666 16H12.8494C13.4208 16 13.876 15.522 13.8482 14.9512L13.4074 5.92653C13.3683 5.12653 12.8557 4.427 12.1047 4.14871L10.0512 3.3878C9.91106 3.33587 9.87533 3.15414 9.98539 3.053L12.3629 0.868156C12.6984 0.55981 12.4803 0 12.0246 0H2.38862C1.92942 0 1.71307 0.567093 2.05558 0.872948L4.47485 3.03327C4.59216 3.13803 4.54824 3.33095 4.39714 3.3746L2.38896 3.95466ZM7.25846 14.023C9.62974 14.023 11.5517 12.1006 11.5517 9.72931C11.5517 7.35825 9.62974 5.43585 7.25846 5.43585C4.88718 5.43585 2.96525 7.35829 2.96525 9.72931C2.96525 12.1006 4.88718 14.023 7.25846 14.023Z" fill="#FF2E00" fill-opacity="0.5"/>
<path d="M8.1966 9.49447L8.19014 9.47595C8.17709 9.41988 8.15961 9.36488 8.13657 9.31333L7.44354 7.22754H6.99574L6.44285 9.40192C6.42829 9.44499 6.41632 9.48896 6.40879 9.53504L6.4028 9.55907H6.40629C6.40078 9.60011 6.3938 9.64016 6.3938 9.68314C6.3938 10.1865 6.80159 10.5938 7.30496 10.5938C7.80883 10.5938 8.21663 10.1865 8.21663 9.68314C8.21616 9.61807 8.20866 9.55502 8.1966 9.49447Z" fill="#FF2E00" fill-opacity="0.5"/>
</svg>
