<svg width="22" height="19" viewBox="0 0 22 19" fill="none" xmlns="http://www.w3.org/2000/svg">
<path d="M2.20619 7C1.95411 6.99974 1.71216 7.09912 1.53304 7.27649C1.35392 7.45385 1.25216 7.69481 1.24994 7.94687C1.24891 8.03424 1.26157 8.12123 1.28744 8.20469L3.71087 16.75C3.8232 17.1492 4.06324 17.5005 4.39426 17.7502C4.72528 18 5.12903 18.1344 5.54369 18.1328H16.4562C16.8716 18.1332 17.276 17.9985 17.6082 17.7491C17.9405 17.4997 18.1827 17.149 18.2984 16.75L20.7218 8.20469L20.7499 7.94687C20.7477 7.69481 20.646 7.45385 20.4668 7.27649C20.2877 7.09912 20.0458 6.99974 19.7937 7H2.20619Z" stroke="white" stroke-linejoin="round"/>
<path d="M6.5 7L11 1L15.5 7" stroke="white" stroke-linejoin="round"/>
</svg>
