<svg width="8" height="14" viewBox="0 0 8 14" fill="none" xmlns="http://www.w3.org/2000/svg">
<path d="M0.519076 0.946011L6.11987 6.4542C6.47107 6.81973 6.47107 7.21862 6.11987 7.5458L0.519076 13.054C0.465599 13.1037 0.422627 13.1636 0.392705 13.2302C0.362782 13.2968 0.346515 13.3687 0.344866 13.4417C0.343217 13.5146 0.356219 13.5872 0.383103 13.6551C0.409988 13.7229 0.450209 13.7847 0.501388 13.8368C0.552566 13.8888 0.613663 13.9301 0.681066 13.9581C0.748469 13.9862 0.820809 14.0004 0.893807 14C0.966806 13.9996 1.03898 13.9845 1.10607 13.9558C1.17315 13.927 1.23378 13.885 1.28437 13.8324L7.82519 7.40034C7.92214 7.31067 7.98316 7.18879 7.99685 7.05744C8.00555 6.97717 7.99626 6.89597 7.96967 6.81973C7.94307 6.7435 7.89984 6.67414 7.8431 6.6167L7.8313 6.60534L1.28437 0.167612C1.23378 0.114986 1.17315 0.0730382 1.10607 0.0442502C1.03898 0.0154623 0.966806 0.000418545 0.893807 8.60996e-06C0.820809 -0.000401325 0.748469 0.013831 0.681066 0.0418637C0.613663 0.0698964 0.552566 0.11116 0.501388 0.163215C0.450209 0.21527 0.409988 0.277059 0.383103 0.344929C0.356219 0.412798 0.343217 0.485368 0.344866 0.55835C0.346515 0.631331 0.362782 0.70324 0.392705 0.769826C0.422627 0.836411 0.465599 0.896321 0.519076 0.946011Z" fill="white"/>
</svg>
