<svg width="40" height="40" viewBox="0 0 40 40" fill="none" xmlns="http://www.w3.org/2000/svg">
<path d="M5.34372 15C4.9236 14.9996 4.52034 15.1652 4.22181 15.4608C3.92328 15.7564 3.75368 16.158 3.74997 16.5781C3.74827 16.7237 3.76936 16.8687 3.81247 17.0078L7.85154 31.25C8.03874 31.9153 8.43882 32.5008 8.99052 32.9171C9.54221 33.3333 10.2151 33.5573 10.9062 33.5547H29.0937C29.7862 33.5553 30.46 33.3308 31.0138 32.9151C31.5676 32.4995 31.9713 31.9151 32.164 31.25L36.2031 17.0078L36.25 16.5781C36.2463 16.158 36.0767 15.7564 35.7781 15.4608C35.4796 15.1652 35.0763 14.9996 34.6562 15H5.34372Z" stroke="black" stroke-width="2" stroke-linejoin="round"/>
<path d="M12.5 15L20 5L27.5 15" stroke="black" stroke-width="2" stroke-linejoin="round"/>
</svg>
